<?xml version="1.0" encoding="UTF-8"?>
<svg xmlns="http://www.w3.org/2000/svg" viewBox="0 0 1004.5 277.3">
  <defs>
    <style>
      .cls-1 {
        fill: #b73b15;
      }

      .cls-1, .cls-2, .cls-3, .cls-4 {
        fill-rule: evenodd;
        stroke-width: 0px;
      }

      .cls-5 {
        font-family: BebasNeue-Regular, 'Bebas Neue';
        font-size: 172.22px;
      }

      .cls-5, .cls-3 {
        fill: #fff;
      }

      .cls-4 {
        fill: #e25c27;
      }

      .cls-6 {
        letter-spacing: 0em;
      }
    </style>
  </defs>
  <g id="OBJECTS">
    <g>
      <g>
        <path class="cls-2" d="m52.46,84.46l62.12-37.34c19.17-11.52,44.29-5.27,55.82,13.91l68.68,114.26c11.52,19.17,5.27,44.29-13.91,55.82l-62.12,37.34c-19.17,11.53-44.29,5.27-55.82-13.91l-68.68-114.26c-11.53-19.17-5.27-44.29,13.91-55.82Z"/>
        <g>
          <path class="cls-3" d="m158.83,46.34l61.32,35.13c18.93,10.84,23.43,35.06,12.6,55.29l-64.52,120.46c-6.01,11.22-20.03,18.23-32.44,19.77-9.98,1.24-19.15-1.1-30.77-7.76l-61.32-35.13c-18.93-10.84-24.6-35.72-12.6-55.29L102.6,62.2c12-19.57,37.3-26.71,56.23-15.86Z"/>
          <path class="cls-4" d="m159.13,46.34l63.39,35.13c19.57,10.84,26.71,35.72,15.86,55.29l-64.61,116.61c-10.84,19.57-35.72,26.71-55.29,15.86l-63.39-35.13c-19.57-10.84-26.71-35.72-15.86-55.29L103.84,62.2c10.84-19.57,35.72-26.71,55.29-15.86Z"/>
          <polygon class="cls-3" points="204.88 206.63 171.81 256.59 197.63 210.16 204.88 206.63"/>
        </g>
        <g>
          <path class="cls-3" d="m171.75,95.7c4.88,0,8.87-3.98,8.87-8.87s-3.98-8.87-8.87-8.87-8.87,3.98-8.87,8.87,3.98,8.87,8.87,8.87Z"/>
          <path class="cls-2" d="m154.75,44.25c.62-2.18,1.5-5.16,2.2-6.96.82-2.09,1.76-4.2,2.82-6.29,5.93-11.74,14.44-20.82,23.41-26.01,9.32-5.4,19.2-6.67,27.41-2.52,8.22,4.15,13.06,12.85,14.25,23.56,1.14,10.3-1.12,22.54-7.05,34.27-5.43,10.76-13.04,19.29-21.18,24.63-8.51,5.59-17.66,7.75-25.67,5.45-1.45-.41-2.29-1.92-1.88-3.37.41-1.45,1.92-2.29,3.37-1.88,6.44,1.84,14-.03,21.19-4.75,7.37-4.84,14.31-12.65,19.31-22.54,5.44-10.77,7.53-21.91,6.5-31.22-.98-8.9-4.82-16.03-11.28-19.3-6.46-3.26-14.48-2.12-22.23,2.37-8.1,4.69-15.83,12.98-21.28,23.75-.97,1.92-1.84,3.87-2.61,5.83-.29.75-.57,1.49-.83,2.24-.31.89-.98,3.39-1.46,5.17l-.61-.34c-1.43-.79-2.9-1.49-4.38-2.09Z"/>
          <path class="cls-3" d="m169.88,91.13c15.71,1.07,27.94-4.5,38.29-16.37,8.29-9.51,11.66-18.16,15.18-29.45-2.89,16.17-9.62,28.82-21.2,38.37-10.13,8.34-19.76,11.13-32.78,10.5l.51-3.05Z"/>
        </g>
      </g>
      <path class="cls-2" d="m44.41,202.15c-34.21,5.01-63.04,12.45-19.01,18.91,44.03,6.45,99.24,19.81,121.64,10.4l89.14-37.45c7.49-3.14,6.13-7-1.51-8.56-11.45-2.34-24.66-4.74-26.81-4.86,0,0-155.85,15.52-163.46,21.56Z"/>
      <g>
        <path class="cls-2" d="m143.17,171.5c-6.36-.38-9.43-.57-15.68-.94-7.79-.47-14.79,10.99-15.64,25.59s4.76,26.82,12.55,27.29c6.36.38,9.44.57,15.68.94,7.79.47,14.79-10.99,15.64-25.59s-4.76-26.82-12.55-27.29Z"/>
        <path class="cls-2" d="m220.27,159.51c-3.49-.21-5.17-.31-8.6-.52-4.27-.26-8.11,7.77-8.58,17.94-.47,10.16,2.61,18.61,6.88,18.87,3.49.21,5.17.31,8.6.52,4.27.26,8.11-7.77,8.58-17.94.47-10.16-2.61-18.61-6.88-18.87Z"/>
        <path class="cls-2" d="m47.94,177.38c-3.49-.76-5.17-1.13-8.6-1.88-4.27-.94-8.11,6.48-8.58,16.57-.47,10.09,2.61,19.03,6.88,19.96,3.49.76,5.17,1.13,8.6,1.88,4.27.94,8.11-6.48,8.58-16.57.47-10.09-2.61-19.02-6.88-19.96Z"/>
        <path class="cls-3" d="m1.34,188.6c-.42-4.81-.59-10.77.6-15.12.86-3.14,2.56-6.41,4.72-8.99.26-2.8,1.09-6.05,1.97-8.47,1.16-3.2,2.89-6.33,5.64-8.42,1.49-1.13,3.33-1.87,5.06-2.56,2.21-.88,4.45-1.67,6.69-2.45,5.97-2.07,12-3.98,18.03-5.87,7.84-2.45,15.7-4.84,23.57-7.17,21.18-17.36,36.04-23.79,64.01-24.09,21.6-.23,51.44,1.5,70.08,13.21,5.47,3.44,11.29,7.9,15.57,12.75,1.23,1.4,2.9,2.67,4.41,3.76,1.77,1.28,3.6,2.46,5.48,3.58,1.05.63,2.13,1.28,3.24,1.81,4.19,2,5.14,6.34,5.77,10.47.49,3.17.78,6.37,1.05,9.57.35,4.13.12,8.33.6,12.5,1.03,8.95-3.37,12.1-10.51,12.26l-1.58-25.51v-5.82l-205.36,15.07c-7.37-1.67-8.23,30.48-9.52,31.77-10.27-.61-12.21-8.5-9.51-12.29Z"/>
        <path class="cls-2" d="m69.59,133.24c20.46-16.89,34.37-23.39,62.09-23.69,20.23-.22,49.92,1.32,67.86,12.59,4.98,3.13,10.75,7.54,14.67,11.99,1.42,1.61,3.34,3.12,5.08,4.37,1.86,1.35,3.81,2.61,5.79,3.78,1.13.68,2.38,1.42,3.57,1.98,2.62,1.25,3.1,4.9,3.49,7.4.47,3.07.76,6.21,1.02,9.29.24,2.83.44,5.66.63,8.49.1,1.55.16,3.2.34,4.74.27,2.36-.28,5.15-1.63,7.05l-.25.36-9.63,7.91v-15.87c0-2.22-.14-4.62-.6-6.82-.12-.56-.5-2.05-.93-2.78-.16.08-.33.18-.43.24-1.76,1.11-3.24,7.49-3.65,9.49-.84,4.17-1.4,8.78-1.63,13.08l-.12,2.28-63.64,21.77.69-5.96c.8-6.92,1.29-20.18-1.34-26.83-.77-1.93-2.13-4-4.2-4.7-4.64-1.56-9.05,4.41-10.85,7.63-1.35,2.42-2.31,5.1-3.03,7.81-1.41,5.35-1.91,11.01-2.17,16.59-.1,2.12-.15,4.25-.29,6.37-.12,1.75-.27,3.86-1.51,5.16-2.83,2.94-13.33,2.7-17.15,2.62-6.35-.13-12.77-.68-19.12-1.38-9.59-1.05-19.18-2.51-28.72-4.15-8.57-1.48-52.34-8.93-59-15.98-2.64-2.8-1.47-5.99.66-8.19-.5-4.81-.78-11.34.31-15.34.79-2.89,2.55-6.14,4.79-8.4v-.05c0-2.54.96-6.37,1.8-8.69.88-2.43,2.2-4.98,4.27-6.55,1.09-.83,2.82-1.5,4.1-2.02,2.14-.85,4.33-1.63,6.51-2.38,5.93-2.05,11.92-3.96,17.92-5.83,8.08-2.53,16.19-4.98,24.31-7.39Z"/>
        <path class="cls-4" d="m71.45,136.5c-11.56,3.42-48.94,14.64-52.43,17.28-3.48,2.64-4.75,10.96-4.75,12.54v1.58s-3.53,2.71-4.91,7.78c-1.38,5.07,0,15.84,0,15.84,0,0-3.56,2.4-1.9,4.16,1.66,1.76,11.72,7.04,56.86,14.83,45.14,7.79,60.35,5.53,61.93,3.88,1.58-1.65-.79-22.22,6.49-35.25,7.29-13.02,17.74-11.76,21.54-2.19,3.8,9.57,1.58,28.6,1.58,28.6l55.91-19.12s-1.17-9.65.5-17.69c.78-3.75,2.92-8.08,4.73-9.22,3.47-2.2,8.46,0,9.83,3.32,2.61,6.35,1.95,10.68,1.99,16.88l.69-.7s1.35-1.9,1.03-4.65c-.32-2.75-1.38-25.98-3.29-26.89-1.9-.91-11.4-6.23-15.68-11.08-2.92-3.31-11.1-10.72-21.89-15.63-13.62-6.2-43.64-7.79-57.76-7.64-26.72.29-39.87,6.26-60.48,23.35Z"/>
        <path class="cls-1" d="m25.27,162.7c-.39.42-.84,2.93-.87,6-.01,1.42.98,2.44,2.26,2.78,11.72,3.14,33.51,5.94,47.15,7.15,2.42.21,4.78.69,5.92-1.74,1.18-2.52,1.23-4.47-.19-5.85-1.02-1-18-3.05-32.04-5.01-12.4-1.73-22.1-3.46-22.23-3.32h0Zm-1.24,9.59c-.03-.27,10.47,4.28,25.45,5.71,6.08.58,18.17,2.72,26.08,2.17,2.7-.18,2.69-.38.76,1.99-4.66,5.72-9.65,6.02-20.64,4.89-11.86-1.22-19.76-3.02-26.45-5.46-3.05-1.11-4.71-5.46-5.2-9.31Z"/>
        <path class="cls-1" d="m8.91,178.33c-.54,5.45.45,13.2.45,13.2,0,0-3.56,2.4-1.9,4.16,1.66,1.76,11.72,7.04,56.86,14.83,45.14,7.79,60.35,5.53,61.93,3.88,1.58-1.65-.79-22.22,6.49-35.25,7.29-13.02,17.74-11.76,21.54-2.19,3.8,9.57,1.58,28.6,1.58,28.6l55.91-19.12s-.6-21.84,5.23-25.25c5.73-3.35,8.42,1.11,9.83,6.32,1.65,6.07.75,13.71.9,13.54l1.78-2.02s1.35-1.9,1.03-4.65c-.25-2.19-.98-17.37-2.23-23.92-.25,1.15-.57,2.34-.97,3.37-1.27,3.25-19.32,4.54-19.32,4.54l-53.22,12.32s-3.64-5.92-10.61-5.23c-6.97.69-11.88,11.16-16,18.99-3.24,6.17-12.09,9.74-17.71,10.54,5.81,4.22,10.81,16.52,7.89,17.26-3.01.77-20.59-.76-22.02-2.43-1.43-1.67-3.33-13.03-4.28-13.4-.95-.37-14.89-2-14.89-2,3.27-.72,6.9-1.33,10.55-1.74-7.13.12-13.57.8-14.5,1.29-1.9,1-9.82-.59-9.82-.59,0,0-40.07-5.74-42.13-7.29-1.98-1.49-9.68-6.7-12.37-7.78Z"/>
        <path class="cls-2" d="m9.13,176.73c-.98,5.37-.4,14.09-.4,14.09.21.89,2.13,1.77,3.4,2.06,1.34.3,2.66.67,3.06-.32.7-1.76,1.45-5.01,1.66-7.24.31-3.14.08-3.95-7.72-8.59Z"/>
        <path class="cls-2" d="m19.02,153.78c-3.48,2.64-4.75,10.96-4.75,12.54v1.58s-.07.05-.2.16c.51.54,4.12,2.65,6.08,3.63.5.25,1.11-.18,1.15-.57.29-2.73.05-7.86.05-8.65,0-.59-1.34-9.46-2.34-8.7Z"/>
        <path class="cls-2" d="m105.88,116.33c-11.9,3.36-21.74,9.65-34.38,20.13l84.65,7.55s9.89-23.92,9.19-24.95c-.7-1.03-41.37-2.2-59.45-2.74Z"/>
        <path class="cls-2" d="m79.41,129.5c-3.72-2.36-9.11-1.82-10.93,4.49-1.82,6.3,5.86,1.22,10.93-4.49Z"/>
        <path class="cls-2" d="m95.17,168.22c-6.97,4.65-15.52,14.27-8.08,13.77,7.44-.5,28.83-1.27,32.79-5.31,3.96-4.04,9.5-12.73,5.86-13.43-3.64-.7-22.97,2.58-30.57,4.97Z"/>
        <path class="cls-2" d="m24.37,161.26c-.41.42-.88,2.93-.9,6-.01,1.42,1.02,2.44,2.35,2.78,12.21,3.14,34.91,5.94,49.11,7.15,2.52.21,4.98.69,6.16-1.74,1.23-2.52,1.28-4.47-.19-5.85-1.06-1-18.75-3.05-33.37-5.01-12.92-1.73-23.02-3.46-23.16-3.32h0Zm-.67,9.95c-.04-.27,10.28,3.92,25.89,5.35,6.33.58,18.93,2.72,27.17,2.17,2.81-.18,2.8-.38.79,1.99-4.86,5.72-10.05,6.02-21.5,4.89-12.36-1.22-20.27-3.26-27.24-5.7-3.17-1.11-4.6-4.85-5.1-8.7Z"/>
        <path class="cls-2" d="m74.03,194.43c11.25-2.49,26.77-3.62,32.79.23,6.02,3.85,11.4,16.84,8.39,17.61-3.01.77-20.59-.76-22.02-2.43-1.43-1.67-3.33-13.03-4.28-13.4-.95-.37-14.89-2-14.89-2Z"/>
        <path class="cls-2" d="m103.65,199.22c-4.76-.21-6.68-.54-10.79-.67-4.65-.15-11.1-.05-9.16.74,1.2.49,5.71,1.19,8.59,1.5,5.86.62,11.15.34,11.37-1.56Z"/>
        <path class="cls-2" d="m106.66,204.95c-10.14-.45-23.6-1.42-19.96.07,3.64,1.49,19.64,2.77,19.96-.07Z"/>
        <path class="cls-2" d="m18.28,195.04c3.8-4.52,4.12-7.36,9.5-6.71,5.38.64,40.23,6.7,40.23,6.7,0,0,4.28,1.21,8.08,6.19l3.8,4.98s-22.33.24-61.61-11.15Z"/>
        <path class="cls-2" d="m161.7,192.1l41.34-14.14-5.23,7.76-36.43,12.54.32-6.16Z"/>
        <path class="cls-2" d="m228.48,150.78c-13.39-4.25-60.7,4.48-92.41,11.32l-1.45.18c14.74-6.2,74.72-15.35,88.81-16.9,1.79,1.06,3.22,1.83,3.84,2.13.28.13.55.77.79,1.75l.42,1.52Z"/>
        <path class="cls-2" d="m169.82,125.3c-2.91,7.63-6.08,20.04-5.28,20.09.95.06,41.66-6.2,42.29-7.12,1.36-1.96-7.91-8.66-13.03-11.58-8.67-4.94-16.42-6.15-20.24-6.79-2.01-.34-2.59,2.4-3.74,5.4Z"/>
        <path class="cls-2" d="m172.94,135.44c-2.06.19-4.28,2.28-4.28,7.98,0,1.01.01,1.84.04,2.54.26,7.37,6.74,6.33,6.28-.57,0,0,10.16-.33,11.5-1.6.68-.64,1.31-1.47-.97-3.93-2.24-2.41-7.16-5.03-12.57-4.42Z"/>
        <polygon class="cls-2" points="161.66 189.59 210.64 174.62 200.27 181.4 161.34 197.89 161.66 189.59"/>
        <path class="cls-2" d="m27.8,150.19l-1.03.87c-2.75,3.22-9.33,8.98-2.08,10.02,10.39,1.49,29.26,4.26,43.67,6.18,8.13,1.09,13.43,2.4,18.44,1.86,4.32-.46,17.15-4.21,30.77-8.54,15.69-4.99,32.36-10.72,38.24-13.08,4.59-1.84,1.16-3.12-3.89-4.01l3.42-.79s7.69,2.16,3.78,5.26c-1.35,1.07-21.91,8.29-40.92,14.34-13.71,4.36-26.66,8.14-31.1,8.61-5.74.61-10.14-.21-19.52-1.57-13.72-1.98-33.23-5.08-43.02-6.49-8.83-1.27-4.01-7.21-.65-11.26,1.15-.44,2.46-.91,3.9-1.41Z"/>
        <path class="cls-3" d="m143.97,177.6c-2.6-.16-5.12,1.91-7.1,5.37-2.08,3.63-3.51,8.76-3.81,14.5-.04.71-.05,1.44-.05,2.2,0,5.15.96,9.78,2.57,13.19,1.52,3.22,3.6,5.3,5.93,5.56.05,0,.13.01.24.02,2.6.16,5.12-1.91,7.1-5.37,2.08-3.63,3.51-8.76,3.81-14.5.04-.71.06-1.44.06-2.2,0-5.15-.96-9.78-2.57-13.19-1.52-3.22-3.6-5.3-5.93-5.56-.05,0-.13-.01-.24-.02h0Zm-8.67,4.41c2.3-4.02,5.37-6.41,8.67-6.21.08,0,.19.01.33.03,3.04.34,5.65,2.83,7.46,6.66,1.72,3.65,2.75,8.56,2.75,13.98,0,.72-.02,1.49-.06,2.29-.32,6.02-1.83,11.42-4.03,15.26-2.3,4.02-5.37,6.41-8.67,6.21-.08,0-.19-.02-.33-.03-3.04-.34-5.65-2.83-7.46-6.66-1.72-3.65-2.75-8.56-2.75-13.98,0-.72.02-1.49.06-2.29.31-6.02,1.83-11.42,4.03-15.26Z"/>
        <path class="cls-3" d="m143.63,192.52c-.67-.04-1.35.48-1.91,1.34-.65,1.01-1.1,2.44-1.19,4.07-.01.19-.02.4-.02.63,0,1.44.29,2.72.78,3.65.41.78.94,1.29,1.51,1.35h.07c.67.04,1.35-.47,1.91-1.34.65-1.01,1.1-2.44,1.19-4.07,0-.19.02-.4.02-.63,0-1.44-.29-2.72-.78-3.65-.41-.78-.94-1.29-1.51-1.35h-.07Zm-3.43.31c.89-1.38,2.1-2.19,3.43-2.11.03,0,.09,0,.17.02,1.24.15,2.28,1.03,2.99,2.38.63,1.2,1,2.78,1,4.52,0,.21,0,.46-.02.72-.11,1.92-.66,3.65-1.46,4.89-.89,1.38-2.1,2.19-3.43,2.11-.03,0-.09,0-.17-.02-1.24-.15-2.28-1.03-2.99-2.38-.63-1.2-1-2.78-1-4.52,0-.21,0-.46.02-.72.11-1.92.66-3.65,1.46-4.89Z"/>
        <path class="cls-3" d="m141.72,193.63c-1.13-.07-2.14,1.74-2.25,4.04-.12,2.3.7,4.22,1.83,4.29,1.13.07,2.14-1.74,2.25-4.04.12-2.3-.7-4.22-1.83-4.29Z"/>
        <path class="cls-3" d="m141.72,194.53c-.21-.01-.47.26-.72.71-.35.63-.59,1.52-.64,2.54,0,.1,0,.23,0,.39,0,.9.16,1.7.42,2.27.17.38.36.61.51.63h0s-.02,0,0,0c.21.01.47-.26.72-.71.35-.63.59-1.52.64-2.54,0-.1,0-.23,0-.39,0-.9-.16-1.7-.42-2.27-.18-.38-.36-.61-.52-.63h0s.02,0,0,0h0Zm-2.29-.24c.57-1.01,1.37-1.61,2.29-1.56h.1c.87.11,1.58.76,2.04,1.76.37.81.6,1.88.6,3.04,0,.13,0,.29-.01.48-.07,1.29-.39,2.45-.85,3.28-.57,1.01-1.38,1.61-2.29,1.56h-.1c-.87-.11-1.58-.76-2.04-1.76-.37-.81-.6-1.88-.6-3.04,0-.13,0-.29.02-.48.07-1.28.39-2.44.85-3.28h0Zm1.87,6.77s0,0,0,0h0Zm.43-6.54"/>
        <path class="cls-3" d="m220.7,163.74c-1.43-.09-2.81,1.37-3.89,3.8-1.14,2.55-1.92,6.12-2.09,10.12-.02.5-.03,1-.03,1.53,0,3.58.53,6.8,1.41,9.15.83,2.23,1.97,3.65,3.25,3.81.03,0,.07,0,.13.01,1.43.09,2.81-1.37,3.89-3.8,1.14-2.55,1.92-6.12,2.09-10.12.02-.5.03-1,.03-1.53,0-3.58-.53-6.8-1.41-9.15-.83-2.23-1.97-3.65-3.25-3.81-.03,0-.07,0-.13-.01h0Zm-4.75,3.15c1.26-2.82,2.94-4.5,4.75-4.39.04,0,.1,0,.18.02,1.67.21,3.1,1.92,4.09,4.57.94,2.52,1.51,5.93,1.51,9.7,0,.5-.01,1.03-.03,1.59-.17,4.19-1,7.96-2.21,10.65-1.26,2.82-2.94,4.5-4.75,4.39-.04,0-.1,0-.18-.02-1.67-.21-3.1-1.92-4.09-4.57-.94-2.52-1.51-5.93-1.51-9.7,0-.5.01-1.03.03-1.59.17-4.19,1-7.96,2.21-10.65Z"/>
        <path class="cls-3" d="m220.52,174.12c-.37-.02-.74.34-1.05.95-.36.71-.6,1.71-.65,2.84,0,.13,0,.28,0,.44,0,1,.16,1.89.43,2.54.22.54.51.89.83.93h.04c.37.02.74-.34,1.04-.95.36-.71.6-1.71.66-2.84,0-.13,0-.28,0-.44,0-1-.16-1.89-.43-2.54-.22-.54-.51-.89-.83-.93h-.04Zm-1.88.25c.49-.97,1.15-1.54,1.88-1.5.02,0,.05,0,.09.01.68.09,1.25.7,1.64,1.63.34.83.55,1.93.55,3.13,0,.15,0,.32-.01.5-.06,1.34-.36,2.55-.8,3.42-.49.96-1.15,1.54-1.88,1.5-.02,0-.05,0-.09-.01-.68-.09-1.25-.7-1.64-1.63-.34-.83-.55-1.93-.55-3.13,0-.15,0-.32.01-.5.06-1.34.36-2.55.8-3.41Z"/>
        <path class="cls-3" d="m219.47,174.92c-.62-.04-1.17,1.23-1.24,2.83-.06,1.6.38,2.93,1,2.97.62.04,1.17-1.23,1.24-2.83.06-1.6-.38-2.93-1-2.97Z"/>
        <path class="cls-3" d="m219.47,175.54c-.11,0-.25.18-.39.5-.19.44-.32,1.06-.35,1.77,0,.07,0,.16,0,.27,0,.63.09,1.18.23,1.57.1.26.2.42.28.44h0s-.01,0,0,0c.11,0,.26-.18.39-.5.19-.44.32-1.06.35-1.77,0-.07,0-.16,0-.27,0-.63-.09-1.18-.23-1.57-.1-.26-.2-.42-.28-.43h0s.01,0,0,0h0Zm-1.26-.14c.31-.71.75-1.13,1.26-1.1h.05c.48.07.87.51,1.12,1.2.2.56.33,1.3.33,2.11,0,.09,0,.2,0,.34-.04.89-.21,1.7-.47,2.29-.31.71-.75,1.14-1.26,1.1h-.05c-.48-.07-.87-.51-1.12-1.2-.21-.56-.33-1.3-.33-2.11,0-.09,0-.2,0-.34.04-.89.21-1.7.47-2.29h0Zm1.02,4.69s0,0,0,0h0Zm.23-4.55"/>
        <path class="cls-2" d="m8.61,176.16c6.4,3.45,9.54,6.07,14.31,10.63-6.22-.96-8.64-2.05-14.5-3.79l.19-6.84Z"/>
        <path class="cls-2" d="m9.63,185.03c2.19.75,3.1.88,4.99,1.57,2.14.77,5.08,2.06,4.13,2.25-.58.12-2.7-.24-4.04-.57-2.73-.67-5.12-1.87-5.08-3.25Z"/>
        <path class="cls-2" d="m8.94,188.01c4.67,1.59,10.9,3.45,9.12,3.81-1.78.36-9.19-1.76-9.12-3.81Z"/>
        <path class="cls-3" d="m124.25,167.46c-8.18.7-23.49.29-29.92,5.18-2.64,2.01-5.7,5.28-8.09,7.68,2.24-3.34,4.2-5.95,7.32-8.6,6.57-5.58,21.82-5.6,30.38-6.57l.31,2.31Z"/>
        <path class="cls-3" d="m123.31,165.19c4.44-.35-3.5,9.22-4.99,10.45-1.16.96-4.56,1.46-6.18,1.74l-2.69.48.47-2.46c.03-.15.44-.22.99-.32,4.75-.8,5.13-6.12,2.25-6.8,0,0-2.66-.34-2.72-.34l.28-1.1,12.59-1.66Z"/>
        <path class="cls-3" d="m16.83,156.59c1.08,1.16,1.64,2.54,1.98,4.23.42,2.12.8,4.53,1.3,8.1,0-2.74.05-3.32-.13-6-.25-3.72-.84-6.12-2.19-7.87-.35.46-.67.99-.96,1.55Z"/>
        <path class="cls-3" d="m14.27,166.4l.03.03c.7.62,2.74,2.05,2.8,1.97.06-.09-.17-.36-.01-2.05.01-.15-.22-.36-.53-.63-2.52-2.21-.27-9.29,2.18-5.57.38.57.93,1.25.95,1.25l-.37-2.99-2.42-1.94c-1.89,3.54-2.63,8.65-2.63,9.85v.07Z"/>
        <path class="cls-3" d="m170.93,136.32c2.83-.07,5.53.72,8.62,2.08,2.65,1.17,3.82,2.66,4.34,4.1.25.71.35,1.4.39,2.04,1.07-.2,1.89-.45,2.21-.75.43-.4.83-.88.51-1.79-.19-.54-.63-1.23-1.48-2.14-2.24-2.41-7.16-5.03-12.57-4.42-.68.06-1.38.34-2.01.88Z"/>
        <path class="cls-3" d="m98.61,134.61c-8.44-2.06-3.78-7.99,13.93-16.75-.79-.02-10.8-.22-11.69.11-8.16,3.03-15.63,7.65-24.18,14.32-1.32,1.22-2.68,2.31-3.9,3.12-.42.34-.84.69-1.27,1.05l65.92,5.88c-11.84-1.72-30.37-5.68-38.81-7.74Z"/>
        <path class="cls-2" d="m67.62,134.74c26.85,1.52,57.44,4.09,84.02,8.2,2.26.35,4.21.59,6.36,1.3l-1.18-.09c-30.05-2.7-59.06-5.6-89.32-6.89-.69-.03-1.23-.62-1.2-1.32.03-.69.62-1.23,1.32-1.2Z"/>
        <path class="cls-3" d="m150.48,147.2c-5.38,2.06-58.84,19.72-66.76,19.72-4.29,0-42.44-4.8-58.74-7.43-2.45-.39-3.19-1.71-3.12-2.39-.95,1.88-.67,3.48,2.82,3.98,5.69.82,13.92,2.01,22.57,3.25,2.08.3,4.19.6,6.29.89,5.11.72,10.19,1.43,14.81,2.04,8.13,1.09,13.43,2.4,18.44,1.86,4.32-.46,17.15-4.21,30.77-8.54,15.69-4.99,32.36-10.72,38.24-13.08,3.61-1.44,2.26-2.54-.92-3.38.21.75-1.09,1.81-4.4,3.07Z"/>
        <path class="cls-3" d="m3.73,191.91c-2.17,4.42,1.12,7.28,5.71,9.18,9.15,3.78,23.24,6.39,37.74,9.03,17.22,3.14,35.13,6.14,47.45,8.46l-2.82-.21c-23.15-2.43-54.87-7.05-77.67-12.93-8.92-2.3-17.15-6.43-13.08-15.1l2.66,1.57Z"/>
        <polygon class="cls-3" points="156.11 209.09 209.2 191.97 154.97 212.72 156.11 209.09"/>
        <path class="cls-3" d="m153.48,168.81c11.91-3.43,53.96-12.39,64.17-11.95-22.77,5.26-42.96,10.43-61.5,16.59l-2.67-4.65Z"/>
      </g>
    </g>
  </g>
  <g id="TEXTS">
    <g>
      <path class="cls-2" d="m1004.5,45.12l-46.65,180.12H308.06l-46.65-180.12c247.2,2.6,495.92,2.6,743.09,0Z"/>
      <text class="cls-5" transform="translate(333.49 197.74)"><tspan x="0" y="0">j</tspan><tspan class="cls-6" x="45.64" y="0">u</tspan><tspan x="114.53" y="0">al mobil</tspan></text>
    </g>
  </g>
</svg>