<?xml version="1.0" encoding="UTF-8"?>
<svg id="OBJECTS" xmlns="http://www.w3.org/2000/svg" viewBox="0 0 500 500">
  <defs>
    <style>
      .cls-1 {
        fill: #b73b15;
      }

      .cls-1, .cls-2, .cls-3, .cls-4 {
        fill-rule: evenodd;
        stroke-width: 0px;
      }

      .cls-3 {
        fill: #fff;
      }

      .cls-4 {
        fill: #e25c27;
      }
    </style>
  </defs>
  <g>
    <path class="cls-2" d="m123.84,152.29l112-67.32c34.57-20.78,79.86-9.5,100.64,25.08l123.83,206.02c20.78,34.57,9.5,79.86-25.08,100.64l-112,67.32c-34.57,20.78-79.86,9.5-100.64-25.07l-123.83-206.02c-20.78-34.57-9.5-79.86,25.08-100.64Z"/>
    <g>
      <path class="cls-3" d="m315.65,83.55l110.56,63.33c34.13,19.55,42.25,63.21,22.71,99.69l-116.33,217.2c-10.83,20.23-36.12,32.87-58.5,35.64-17.99,2.23-34.53-1.99-55.48-13.99l-110.56-63.33c-34.13-19.55-44.35-64.41-22.71-99.69L214.26,112.16c21.64-35.28,67.26-48.15,101.39-28.6Z"/>
      <path class="cls-4" d="m316.19,83.55l114.3,63.33c35.28,19.55,48.15,64.41,28.6,99.69l-116.5,210.25c-19.55,35.28-64.41,48.15-99.69,28.6l-114.3-63.33c-35.28-19.55-48.15-64.41-28.6-99.69l116.5-210.25c19.55-35.28,64.41-48.15,99.7-28.6Z"/>
      <polygon class="cls-3" points="398.67 372.57 339.05 462.66 385.6 378.93 398.67 372.57"/>
    </g>
    <g>
      <path class="cls-3" d="m338.94,172.55c8.81,0,15.99-7.18,15.99-15.99s-7.18-15.99-15.99-15.99-15.99,7.18-15.99,15.99,7.18,15.99,15.99,15.99Z"/>
      <path class="cls-2" d="m308.29,79.78c1.12-3.93,2.7-9.31,3.96-12.55,1.48-3.78,3.17-7.57,5.08-11.35,10.69-21.16,26.04-37.54,42.21-46.9,16.81-9.74,34.62-12.02,49.43-4.54,14.82,7.49,23.55,23.18,25.69,42.49,2.05,18.57-2.02,40.64-12.71,61.8-9.8,19.4-23.52,34.77-38.2,44.41-15.35,10.08-31.84,13.97-46.29,9.83-2.61-.74-4.13-3.47-3.39-6.08.74-2.61,3.47-4.13,6.08-3.38,11.62,3.32,25.25-.05,38.21-8.56,13.3-8.74,25.79-22.8,34.81-40.64,9.81-19.42,13.57-39.51,11.71-56.3-1.77-16.04-8.69-28.91-20.34-34.79-11.65-5.89-26.12-3.82-40.08,4.27-14.61,8.46-28.55,23.41-38.36,42.83-1.75,3.47-3.32,6.98-4.7,10.5-.53,1.35-1.03,2.69-1.5,4.04-.56,1.61-1.77,6.11-2.63,9.31l-1.09-.61c-2.59-1.43-5.23-2.69-7.9-3.78Z"/>
      <path class="cls-3" d="m335.57,164.31c28.32,1.93,50.38-8.1,69.04-29.51,14.95-17.15,21.03-32.74,27.37-53.1-5.21,29.16-17.35,51.97-38.23,69.18-18.26,15.04-35.64,20.08-59.1,18.93l.91-5.49Z"/>
    </g>
  </g>
  <path class="cls-2" d="m109.34,364.49c-61.68,9.04-113.66,22.45-34.27,34.09,79.39,11.64,178.94,35.72,219.33,18.76l160.73-67.52c13.5-5.67,11.05-12.61-2.72-15.44-20.65-4.23-44.46-8.55-48.34-8.77,0,0-281.01,27.98-294.72,38.88Z"/>
  <g>
    <path class="cls-2" d="m287.42,309.24c-11.46-.69-17.01-1.02-28.27-1.7-14.04-.85-26.67,19.81-28.21,46.14-1.54,26.33,8.59,48.35,22.63,49.2,11.46.69,17.01,1.02,28.27,1.7,14.04.84,26.67-19.81,28.21-46.14,1.54-26.33-8.59-48.35-22.63-49.2Z"/>
    <path class="cls-2" d="m426.42,287.61c-6.29-.38-9.33-.56-15.5-.93-7.7-.46-14.62,14.02-15.47,32.34-.85,18.32,4.71,33.56,12.4,34.02,6.29.38,9.33.56,15.5.93,7.7.46,14.62-14.02,15.47-32.34.85-18.32-4.71-33.56-12.41-34.02Z"/>
    <path class="cls-2" d="m115.7,319.83c-6.29-1.38-9.33-2.04-15.5-3.39-7.7-1.69-14.62,11.69-15.47,29.88-.85,18.19,4.71,34.3,12.4,35.99,6.29,1.38,9.33,2.04,15.5,3.39,7.7,1.69,14.62-11.69,15.47-29.88.85-18.19-4.71-34.3-12.41-35.99Z"/>
    <path class="cls-3" d="m31.68,340.05c-.76-8.68-1.06-19.41,1.08-27.27,1.54-5.67,4.62-11.56,8.51-16.2.46-5.04,1.97-10.9,3.55-15.27,2.08-5.77,5.21-11.42,10.18-15.19,2.69-2.04,6-3.37,9.12-4.61,3.98-1.59,8.02-3.02,12.06-4.42,10.77-3.73,21.64-7.18,32.51-10.58,14.14-4.42,28.31-8.72,42.51-12.93,38.18-31.31,64.99-42.9,115.41-43.44,38.94-.42,92.74,2.71,126.36,23.82,9.87,6.2,20.36,14.24,28.07,22.99,2.22,2.52,5.23,4.82,7.95,6.79,3.18,2.31,6.5,4.44,9.88,6.45,1.9,1.13,3.84,2.31,5.84,3.26,7.55,3.6,9.27,11.43,10.41,18.89.88,5.72,1.41,11.49,1.89,17.26.63,7.44.21,15.01,1.08,22.54,1.86,16.14-6.07,21.81-18.96,22.1l-2.85-45.99v-10.5l-370.28,27.17c-13.29-3.02-14.83,54.95-17.16,57.28-18.53-1.1-22.02-15.32-17.15-22.16Z"/>
    <path class="cls-2" d="m154.73,240.25c36.89-30.45,61.96-42.17,111.95-42.71,36.48-.39,90.01,2.38,122.36,22.69,8.98,5.64,19.38,13.59,26.46,21.62,2.57,2.91,6.03,5.62,9.16,7.88,3.36,2.44,6.87,4.7,10.43,6.82,2.04,1.22,4.29,2.56,6.44,3.58,4.73,2.26,5.6,8.84,6.28,13.33.85,5.54,1.37,11.19,1.83,16.76.43,5.1.79,10.2,1.13,15.31.19,2.8.3,5.76.62,8.55.49,4.25-.51,9.29-2.94,12.71l-.46.65-17.37,14.26v-28.62c0-4.01-.25-8.32-1.09-12.3-.21-1.01-.9-3.7-1.68-5.01-.3.14-.6.32-.77.43-3.17,2.01-5.85,13.5-6.57,17.12-1.51,7.53-2.53,15.83-2.93,23.59l-.21,4.12-114.75,39.25,1.25-10.74c1.45-12.47,2.33-36.39-2.42-48.37-1.38-3.48-3.85-7.22-7.58-8.47-8.36-2.82-16.32,7.94-19.57,13.76-2.44,4.36-4.17,9.2-5.46,14.08-2.54,9.65-3.44,19.86-3.91,29.92-.18,3.82-.27,7.67-.52,11.48-.21,3.16-.48,6.97-2.72,9.3-5.1,5.3-24.03,4.86-30.92,4.72-11.45-.24-23.03-1.23-34.47-2.48-17.29-1.9-34.58-4.52-51.78-7.49-15.45-2.66-94.38-16.1-106.38-28.82-4.76-5.05-2.64-10.81,1.19-14.76-.91-8.67-1.4-20.46.56-27.66,1.42-5.22,4.61-11.08,8.63-15.14v-.09c0-4.58,1.74-11.49,3.25-15.67,1.58-4.38,3.96-8.98,7.69-11.81,1.97-1.49,5.08-2.71,7.39-3.64,3.86-1.54,7.8-2.94,11.74-4.3,10.68-3.7,21.5-7.13,32.3-10.51,14.57-4.56,29.19-8.99,43.84-13.33Z"/>
    <path class="cls-4" d="m158.09,246.13c-20.85,6.17-88.24,26.39-94.53,31.15-6.28,4.76-8.57,19.76-8.57,22.62v2.86s-6.36,4.89-8.85,14.03c-2.49,9.14,0,28.56,0,28.56,0,0-6.43,4.33-3.43,7.5,3,3.18,21.13,12.7,102.52,26.73,81.39,14.04,108.81,9.97,111.66,7,2.85-2.97-1.43-40.07,11.71-63.55,13.14-23.48,31.99-21.21,38.84-3.94,6.85,17.26,2.86,51.57,2.86,51.57l100.81-34.48s-2.11-17.4.9-31.89c1.4-6.76,5.26-14.56,8.53-16.63,6.25-3.96,15.26-.01,17.73,5.99,4.71,11.44,3.51,19.26,3.59,30.44l1.24-1.26s2.43-3.42,1.85-8.38c-.57-4.96-2.5-46.84-5.92-48.48-3.43-1.63-20.56-11.23-28.27-19.98-5.27-5.98-20.01-19.32-39.47-28.18-24.55-11.17-78.69-14.05-104.15-13.77-48.18.52-71.9,11.28-109.05,42.1Z"/>
    <path class="cls-1" d="m74.82,293.36c-.71.76-1.52,5.29-1.56,10.81-.02,2.57,1.77,4.4,4.07,5.02,21.13,5.67,60.42,10.71,85.01,12.89,4.37.39,8.61,1.25,10.67-3.14,2.13-4.54,2.22-8.06-.34-10.56-1.83-1.79-32.46-5.5-57.77-9.03-22.36-3.12-39.85-6.24-40.08-5.99h0Zm-2.24,17.3c-.06-.48,18.88,7.71,45.89,10.3,10.96,1.05,32.76,4.9,47.03,3.92,4.87-.33,4.85-.68,1.37,3.59-8.41,10.32-17.4,10.85-37.22,8.82-21.38-2.2-35.64-5.45-47.7-9.85-5.5-2-8.5-9.84-9.38-16.78Z"/>
    <path class="cls-1" d="m45.33,321.53c-.98,9.82.81,23.81.81,23.81,0,0-6.43,4.33-3.43,7.5,3,3.18,21.13,12.7,102.52,26.73,81.39,14.04,108.81,9.97,111.66,7,2.85-2.97-1.43-40.07,11.71-63.55,13.14-23.48,31.99-21.21,38.84-3.94,6.85,17.26,2.86,51.57,2.86,51.57l100.81-34.48s-1.08-39.38,9.42-45.53c10.33-6.05,15.18,2,17.73,11.39,2.97,10.95,1.35,24.72,1.62,24.42l3.21-3.64s2.43-3.42,1.85-8.38c-.45-3.95-1.77-31.32-4.01-43.12-.46,2.07-1.04,4.22-1.76,6.07-2.29,5.86-34.84,8.18-34.84,8.18l-95.96,22.21s-6.57-10.68-19.13-9.43c-12.57,1.24-21.42,20.13-28.84,34.25-5.85,11.12-21.8,17.56-31.94,19.01,10.47,7.61,19.5,29.78,14.23,31.13-5.43,1.39-37.13-1.38-39.7-4.39-2.57-3.01-6-23.49-7.71-24.17-1.71-.67-26.85-3.61-26.85-3.61,5.89-1.3,12.43-2.4,19.02-3.13-12.86.21-24.47,1.45-26.15,2.33-3.43,1.79-17.71-1.07-17.71-1.07,0,0-72.25-10.34-75.96-13.14-3.57-2.69-17.45-12.07-22.31-14.03Z"/>
    <path class="cls-2" d="m45.73,318.66c-1.76,9.68-.72,25.4-.72,25.4.37,1.6,3.84,3.2,6.13,3.71,2.41.54,4.8,1.21,5.51-.58,1.26-3.18,2.61-9.03,3-13.05.55-5.66.15-7.12-13.92-15.48Z"/>
    <path class="cls-2" d="m63.57,277.28c-6.28,4.76-8.57,19.76-8.57,22.62v2.86s-.13.1-.35.29c.92.97,7.43,4.77,10.97,6.55.9.45,2-.33,2.07-1.03.53-4.92.09-14.17.09-15.59,0-1.07-2.42-17.05-4.22-15.69Z"/>
    <path class="cls-2" d="m220.18,209.75c-21.46,6.06-39.2,17.4-61.99,36.3l152.63,13.62s17.83-43.13,16.56-44.98c-1.27-1.85-74.58-3.97-107.2-4.94Z"/>
    <path class="cls-2" d="m172.45,233.5c-6.71-4.26-16.42-3.27-19.71,8.1-3.28,11.37,10.57,2.21,19.71-8.1Z"/>
    <path class="cls-2" d="m200.86,303.32c-12.56,8.38-27.99,25.73-14.56,24.83,13.42-.9,51.98-2.3,59.12-9.58,7.14-7.28,17.13-22.96,10.57-24.21-6.57-1.25-41.41,4.65-55.12,8.96Z"/>
    <path class="cls-2" d="m73.21,290.76c-.74.76-1.58,5.29-1.63,10.81-.02,2.57,1.84,4.4,4.24,5.02,22.01,5.67,62.94,10.71,88.55,12.89,4.55.39,8.97,1.25,11.11-3.14,2.22-4.54,2.31-8.06-.35-10.56-1.91-1.79-33.81-5.5-60.18-9.03-23.29-3.12-41.51-6.24-41.75-5.99h0Zm-1.21,17.95c-.06-.48,18.54,7.06,46.68,9.65,11.42,1.05,34.13,4.9,48.99,3.92,5.07-.33,5.05-.68,1.42,3.59-8.76,10.32-18.12,10.85-38.77,8.82-22.28-2.2-36.56-5.88-49.12-10.28-5.72-2-8.29-8.75-9.2-15.7Z"/>
    <path class="cls-2" d="m162.74,350.57c20.28-4.49,48.26-6.52,59.12.42,10.85,6.94,20.56,30.37,15.14,31.75-5.43,1.39-37.13-1.38-39.7-4.39-2.57-3.01-6-23.49-7.71-24.17-1.71-.67-26.85-3.61-26.85-3.61Z"/>
    <path class="cls-2" d="m216.14,359.21c-8.58-.38-12.05-.97-19.46-1.21-8.38-.27-20.01-.09-16.52,1.33,2.16.88,10.3,2.15,15.49,2.7,10.57,1.12,20.11.61,20.49-2.82Z"/>
    <path class="cls-2" d="m221.57,369.53c-18.28-.81-42.55-2.56-35.98.12s35.41,4.99,35.98-.12Z"/>
    <path class="cls-2" d="m62.21,351.66c6.85-8.16,7.42-13.26,17.13-12.11,9.71,1.16,72.54,12.08,72.54,12.08,0,0,7.71,2.18,14.57,11.16l6.85,8.98s-40.27.43-111.09-20.11Z"/>
    <path class="cls-2" d="m320.81,346.38l74.54-25.5-9.42,14-65.69,22.61.57-11.1Z"/>
    <path class="cls-2" d="m441.22,271.87c-24.14-7.66-109.44,8.08-166.63,20.4l-2.62.33c26.58-11.17,134.73-27.67,160.14-30.47,3.23,1.92,5.81,3.3,6.92,3.83.51.24.99,1.38,1.43,3.16l.75,2.75Z"/>
    <path class="cls-2" d="m335.47,225.93c-5.25,13.76-10.96,36.13-9.51,36.22,1.71.1,75.11-11.19,76.25-12.83,2.45-3.53-14.25-15.61-23.5-20.88-15.64-8.91-29.6-11.08-36.5-12.24-3.62-.61-4.67,4.33-6.74,9.73Z"/>
    <path class="cls-2" d="m341.09,244.21c-3.71.35-7.71,4.1-7.71,14.39,0,1.82.03,3.32.07,4.57.47,13.29,12.15,11.41,11.32-1.03,0,0,18.31-.6,20.74-2.88,1.23-1.15,2.36-2.65-1.75-7.09-4.03-4.34-12.92-9.08-22.67-7.97Z"/>
    <polygon class="cls-2" points="320.75 341.85 409.06 314.85 390.37 327.07 320.16 356.82 320.75 341.85"/>
    <path class="cls-2" d="m79.38,270.8l-1.86,1.57c-4.97,5.81-16.82,16.19-3.75,18.07,18.73,2.69,52.76,7.67,78.74,11.15,14.66,1.96,24.21,4.32,33.24,3.36,7.78-.83,30.92-7.59,55.47-15.4,28.29-9,58.35-19.33,68.95-23.58,8.28-3.31,2.08-5.63-7.01-7.24l6.16-1.43s13.86,3.89,6.82,9.48c-2.43,1.94-39.5,14.95-73.79,25.86-24.72,7.86-48.07,14.68-56.08,15.53-10.34,1.1-18.28-.39-35.2-2.82-24.74-3.57-59.92-9.17-77.57-11.7-15.92-2.29-7.22-13.01-1.17-20.3,2.08-.79,4.44-1.64,7.04-2.55Z"/>
    <path class="cls-3" d="m288.86,320.22c-4.69-.28-9.24,3.44-12.8,9.68-3.74,6.55-6.33,15.79-6.87,26.15-.07,1.28-.1,2.6-.1,3.96,0,9.29,1.73,17.64,4.63,23.78,2.74,5.81,6.48,9.55,10.7,10.02.09,0,.23.02.43.03,4.69.28,9.24-3.44,12.8-9.68,3.74-6.55,6.33-15.79,6.87-26.15.07-1.28.1-2.6.1-3.96,0-9.29-1.73-17.64-4.63-23.78-2.74-5.81-6.49-9.55-10.7-10.02-.09-.01-.23-.02-.43-.03h0Zm-15.64,7.95c4.14-7.25,9.68-11.55,15.64-11.19.15,0,.34.03.59.06,5.49.62,10.18,5.1,13.44,12.01,3.11,6.58,4.96,15.43,4.96,25.2,0,1.3-.04,2.68-.11,4.12-.57,10.86-3.3,20.58-7.26,27.52-4.14,7.25-9.68,11.55-15.64,11.19-.15,0-.34-.03-.59-.06-5.49-.62-10.18-5.1-13.44-12.01-3.11-6.58-4.96-15.43-4.96-25.2,0-1.3.04-2.68.11-4.12.57-10.86,3.3-20.58,7.26-27.52Z"/>
    <path class="cls-3" d="m288.24,347.12c-1.2-.07-2.43.86-3.44,2.42-1.17,1.82-1.98,4.4-2.15,7.33-.02.34-.03.71-.03,1.13,0,2.59.53,4.9,1.41,6.59.74,1.41,1.69,2.32,2.72,2.44h.13c1.2.08,2.43-.85,3.44-2.42,1.17-1.82,1.98-4.41,2.15-7.33.02-.34.03-.71.03-1.13,0-2.59-.53-4.9-1.41-6.59-.74-1.41-1.69-2.32-2.72-2.44h-.13Zm-6.18.56c1.6-2.48,3.79-3.95,6.18-3.8.06,0,.16.02.31.03,2.23.27,4.11,1.86,5.39,4.3,1.13,2.16,1.8,5.02,1.8,8.14,0,.39-.01.82-.04,1.31-.2,3.47-1.19,6.59-2.63,8.82-1.6,2.48-3.79,3.95-6.18,3.8-.06,0-.16-.01-.31-.03-2.23-.26-4.11-1.86-5.39-4.29-1.13-2.16-1.8-5.02-1.8-8.15,0-.39.02-.82.04-1.31.21-3.47,1.2-6.59,2.63-8.82Z"/>
    <path class="cls-3" d="m284.8,349.13c-2.03-.12-3.85,3.14-4.07,7.29-.21,4.15,1.26,7.61,3.3,7.73,2.03.12,3.85-3.14,4.06-7.29.21-4.15-1.26-7.61-3.3-7.73Z"/>
    <path class="cls-3" d="m284.8,350.75c-.38-.02-.84.47-1.29,1.27-.63,1.13-1.07,2.74-1.16,4.57,0,.18-.01.42-.01.71,0,1.63.28,3.06.76,4.09.32.68.65,1.11.93,1.14h.01s-.04,0,0,0c.37.02.84-.47,1.29-1.27.63-1.13,1.07-2.74,1.16-4.57,0-.18.01-.42.01-.71,0-1.63-.28-3.06-.76-4.09-.32-.68-.65-1.11-.93-1.14h-.01s.04,0,0,0h0Zm-4.14-.43c1.02-1.83,2.48-2.91,4.14-2.81l.17.02c1.57.17,2.85,1.35,3.69,3.15.67,1.46,1.07,3.38,1.07,5.48,0,.23,0,.52-.03.87-.12,2.32-.7,4.41-1.54,5.92-1.02,1.83-2.48,2.91-4.14,2.81l-.18-.02c-1.57-.17-2.85-1.35-3.69-3.15-.67-1.46-1.07-3.38-1.07-5.48,0-.23,0-.52.03-.87.12-2.32.7-4.41,1.54-5.92h0Zm3.37,12.21s0,0,0,0h0Zm.77-11.79"/>
    <path class="cls-3" d="m427.21,295.24c-2.57-.15-5.07,2.47-7.02,6.85-2.05,4.59-3.47,11.04-3.77,18.25-.04.89-.05,1.81-.05,2.76,0,6.46.95,12.25,2.54,16.5,1.5,4.01,3.56,6.58,5.87,6.88.05,0,.13.01.23.02,2.57.15,5.07-2.47,7.02-6.85,2.05-4.59,3.47-11.04,3.77-18.25.04-.89.05-1.81.05-2.76,0-6.46-.95-12.25-2.54-16.5-1.5-4.01-3.56-6.58-5.87-6.88-.05,0-.13-.01-.23-.02h0Zm-8.57,5.67c2.27-5.08,5.31-8.12,8.57-7.92.08,0,.19.02.32.03,3.01.38,5.58,3.46,7.37,8.23,1.7,4.55,2.72,10.69,2.72,17.49,0,.91-.02,1.86-.06,2.87-.31,7.56-1.81,14.35-3.98,19.21-2.27,5.08-5.31,8.12-8.57,7.92-.08,0-.19-.02-.32-.03-3.01-.38-5.58-3.46-7.37-8.23-1.7-4.55-2.72-10.69-2.72-17.49,0-.91.02-1.86.06-2.87.31-7.56,1.81-14.35,3.98-19.21Z"/>
    <path class="cls-3" d="m426.87,313.95c-.66-.04-1.33.62-1.89,1.72-.64,1.27-1.08,3.08-1.18,5.12-.01.23-.02.5-.02.79,0,1.8.29,3.41.77,4.57.4.97.93,1.6,1.49,1.67h.07c.66.04,1.33-.62,1.88-1.71.64-1.27,1.09-3.08,1.18-5.12,0-.24.02-.5.02-.79,0-1.8-.29-3.41-.77-4.57-.4-.97-.93-1.6-1.49-1.67h-.07Zm-3.39.45c.88-1.74,2.07-2.78,3.39-2.7.03,0,.09,0,.17.02,1.23.16,2.25,1.26,2.95,2.94.62,1.49.99,3.48.99,5.65,0,.27,0,.57-.02.91-.11,2.42-.66,4.59-1.44,6.16-.88,1.74-2.08,2.78-3.39,2.7-.03,0-.09,0-.17-.02-1.23-.17-2.25-1.26-2.95-2.94-.62-1.49-.99-3.47-.99-5.65,0-.27,0-.57.02-.91.11-2.42.66-4.59,1.44-6.16Z"/>
    <path class="cls-3" d="m424.98,315.39c-1.11-.07-2.11,2.22-2.23,5.1-.12,2.89.69,5.28,1.81,5.35,1.11.07,2.11-2.22,2.23-5.1.12-2.89-.69-5.28-1.81-5.35Z"/>
    <path class="cls-3" d="m424.98,316.51c-.2-.01-.46.33-.71.9-.35.79-.58,1.92-.64,3.19,0,.13,0,.29,0,.49,0,1.13.15,2.13.42,2.84.17.47.36.77.51.79h0s-.02,0,0,0c.21.01.46-.33.71-.9.35-.79.58-1.92.64-3.19,0-.13,0-.29,0-.49,0-1.13-.16-2.13-.42-2.84-.17-.47-.35-.76-.51-.78h0s.02,0,0,0h0Zm-2.27-.26c.56-1.28,1.36-2.05,2.27-1.99h.1c.86.12,1.56.93,2.02,2.17.37,1.01.59,2.35.59,3.81,0,.16,0,.36-.01.61-.07,1.61-.38,3.07-.84,4.13-.56,1.28-1.36,2.05-2.27,1.99h-.1c-.86-.12-1.57-.93-2.02-2.17-.37-1.01-.59-2.35-.59-3.81,0-.16,0-.36.01-.6.07-1.61.38-3.07.85-4.13h0Zm1.85,8.46s0,0,0,0h0Zm.42-8.21"/>
    <path class="cls-2" d="m44.79,317.62c11.55,6.22,17.21,10.95,25.8,19.16-11.22-1.73-15.58-3.7-26.14-6.83l.34-12.34Z"/>
    <path class="cls-2" d="m46.63,333.62c3.95,1.35,5.58,1.59,8.99,2.82,3.85,1.39,9.15,3.71,7.45,4.05-1.05.21-4.87-.43-7.28-1.02-4.92-1.21-9.24-3.37-9.16-5.85Z"/>
    <path class="cls-2" d="m45.37,339c8.42,2.88,19.65,6.23,16.44,6.87-3.2.64-16.56-3.17-16.44-6.87Z"/>
    <path class="cls-3" d="m253.3,301.94c-14.75,1.27-42.35.51-53.94,9.34-4.75,3.62-10.28,9.52-14.59,13.84,4.04-6.02,7.57-10.73,13.2-15.51,11.84-10.05,39.34-10.09,54.78-11.85l.55,4.17Z"/>
    <path class="cls-3" d="m251.59,297.85c8.01-.64-6.3,16.63-9,18.85-2.1,1.73-8.22,2.63-11.14,3.14l-4.85.86.86-4.43c.05-.28.79-.4,1.79-.57,8.56-1.44,9.25-11.03,4.05-12.26,0,0-4.79-.61-4.91-.61l.5-1.98,22.7-3Z"/>
    <path class="cls-3" d="m59.62,282.34c1.94,2.1,2.96,4.58,3.57,7.62.76,3.82,1.44,8.16,2.35,14.6,0-4.93.09-5.99-.23-10.81-.45-6.71-1.51-11.03-3.95-14.19-.63.84-1.21,1.78-1.74,2.79Z"/>
    <path class="cls-3" d="m55,300.03l.06.05c1.27,1.12,4.95,3.7,5.04,3.54.11-.16-.3-.65-.02-3.7.03-.28-.39-.64-.95-1.13-4.55-3.98-.49-16.74,3.92-10.05.68,1.03,1.68,2.25,1.71,2.26l-.66-5.39-4.37-3.49c-3.41,6.37-4.73,15.59-4.73,17.77v.13Z"/>
    <path class="cls-3" d="m337.46,245.8c5.1-.12,9.97,1.29,15.54,3.76,4.78,2.12,6.9,4.79,7.83,7.39.46,1.27.63,2.52.7,3.68,1.92-.37,3.4-.82,3.98-1.36.77-.72,1.51-1.58.93-3.22-.34-.97-1.14-2.22-2.68-3.87-4.03-4.34-12.92-9.08-22.67-7.97-1.23.12-2.5.61-3.63,1.59Z"/>
    <path class="cls-3" d="m207.06,242.7c-15.22-3.71-6.81-14.41,25.12-30.19-1.42-.04-19.48-.39-21.07.2-14.72,5.46-28.18,13.79-43.6,25.83-2.38,2.21-4.82,4.17-7.03,5.63-.76.62-1.52,1.25-2.29,1.89l118.85,10.61c-21.36-3.1-54.76-10.25-69.97-13.96Z"/>
    <path class="cls-2" d="m151.19,242.94c48.41,2.74,103.57,7.38,151.49,14.78,4.08.63,7.59,1.07,11.47,2.34l-2.13-.16c-54.17-4.86-106.49-10.1-161.05-12.43-1.25-.06-2.22-1.12-2.16-2.37.06-1.25,1.12-2.22,2.37-2.16Z"/>
    <path class="cls-3" d="m300.59,265.41c-9.71,3.71-106.09,35.55-120.37,35.55-7.73,0-76.53-8.66-105.91-13.39-4.42-.71-5.75-3.08-5.62-4.31-1.72,3.39-1.21,6.27,5.09,7.18,10.25,1.47,25.09,3.63,40.69,5.85,3.75.54,7.55,1.08,11.34,1.61,9.22,1.3,18.38,2.57,26.71,3.69,14.66,1.96,24.21,4.32,33.24,3.36,7.78-.83,30.92-7.59,55.47-15.4,28.29-9,58.35-19.33,68.95-23.58,6.5-2.6,4.08-4.59-1.67-6.1.38,1.36-1.97,3.26-7.93,5.54Z"/>
    <path class="cls-3" d="m35.99,346.03c-3.92,7.97,2.02,13.13,10.3,16.56,16.5,6.82,41.9,11.52,68.06,16.29,31.05,5.66,63.34,11.06,85.56,15.25l-5.09-.38c-41.74-4.39-98.94-12.71-140.04-23.31-16.08-4.14-30.93-11.6-23.59-27.23l4.8,2.82Z"/>
    <polygon class="cls-3" points="310.74 377 406.47 346.14 308.68 383.55 310.74 377"/>
    <path class="cls-3" d="m306,304.37c21.47-6.18,97.3-22.33,115.7-21.54-41.05,9.48-77.47,18.8-110.88,29.92l-4.82-8.38Z"/>
  </g>
</svg>